<svg width="65" height="65" viewBox="0 0 65 65" fill="none" xmlns="http://www.w3.org/2000/svg">
<path fill-rule="evenodd" clip-rule="evenodd" d="M7.25869 12.8312C6.72823 13.5119 6.90087 14.4893 7.6067 14.9859C8.31254 15.4825 9.284 15.3099 9.81805 14.632C11.907 11.9802 14.4474 9.71198 17.3263 7.93376C20.6489 5.88145 24.3533 4.52449 28.2154 3.94497C32.0775 3.36545 36.017 3.5754 39.7956 4.56214C43.0696 5.4171 46.1638 6.83982 48.9391 8.76172C49.6486 9.25306 50.6279 9.13293 51.1569 8.45105C51.6859 7.76916 51.5641 6.78414 50.8572 6.28905C47.7461 4.11013 44.2683 2.50003 40.5852 1.53825C36.3976 0.444717 32.0317 0.212035 27.7516 0.854285C23.4715 1.49653 19.3661 3.00037 15.6839 5.27481C12.4453 7.2752 9.59326 9.83512 7.25869 12.8312ZM57.2539 30.99C57.3047 31.8226 56.6236 32.4995 55.7894 32.4995C54.9551 32.4995 54.2843 31.8225 54.2265 30.9902C54.0373 28.2662 53.3371 25.5973 52.1578 23.1245C50.7613 20.1965 48.7284 17.6174 46.2076 15.5756C43.6867 13.5338 40.7416 12.081 37.5873 11.3233C34.4331 10.5655 31.1494 10.522 27.9762 11.1958C24.803 11.8697 21.8203 13.2439 19.2462 15.2181C16.6721 17.1923 14.5716 19.7166 13.098 22.6066C11.6244 25.4965 10.815 28.6792 10.729 31.9221C10.6564 34.6607 11.1012 37.3838 12.0353 39.9497C12.3207 40.7336 11.9829 41.6249 11.2207 41.9639C10.4584 42.3029 9.56106 41.9612 9.26907 41.1797C8.15593 38.2006 7.62453 35.0305 7.7091 31.842C7.80705 28.1493 8.72868 24.5251 10.4067 21.2343C12.0846 17.9434 14.4766 15.069 17.4078 12.8209C20.3389 10.5729 23.7353 9.00806 27.3487 8.24074C30.9621 7.47342 34.7012 7.523 38.293 8.38587C41.8848 9.24873 45.2384 10.9031 48.109 13.228C50.9795 15.553 53.2944 18.4899 54.8845 21.8241C56.2576 24.7031 57.0603 27.8156 57.2539 30.99ZM47.3014 27.165C48.1731 26.8179 48.6057 25.8249 48.1744 24.9917C46.4115 21.5865 43.5514 18.8519 40.0326 17.2483C35.9963 15.4089 31.4053 15.2 27.2186 16.6652C23.0318 18.1304 19.573 21.1565 17.5646 25.1115C15.8136 28.5593 15.2829 32.4806 16.0282 36.242C16.0444 36.3239 16.0668 36.4025 16.0947 36.4776C16.3891 39.4729 16.1957 42.1943 15.3618 44.7724C14.5882 47.1644 13.2385 49.5098 11.0953 51.8792C10.9801 51.7519 10.866 51.6236 10.753 51.4942C8.25857 48.6383 6.35111 45.3191 5.1395 41.7261C3.92789 38.133 3.43584 34.3365 3.69146 30.5533C3.91192 27.2904 4.6848 24.0926 5.97353 21.0951C6.3144 20.3022 6.00244 19.3661 5.22919 18.9829C4.45593 18.5996 3.51464 18.9144 3.16958 19.7054C1.701 23.0721 0.821416 26.6702 0.573284 30.3426C0.289999 34.5353 0.8353 38.7427 2.17805 42.7247C3.52081 46.7066 5.63472 50.3851 8.39909 53.5501C10.8204 56.3224 13.6993 58.6531 16.9067 60.443C17.5517 60.8029 18.3329 60.6208 18.785 60.076C18.8573 60.0092 18.9245 59.9347 18.9853 59.8528C22.0139 55.7703 24.2355 52.2044 25.5672 48.065C26.8998 43.9227 27.3038 39.3274 26.8982 33.2165C26.8961 33.1781 26.8927 33.1395 26.8879 33.1008C26.7322 31.8554 27.063 29.9101 28.1962 28.5034C29.2218 27.2302 31.0879 26.1688 34.5864 26.8684C36.4952 27.2501 37.7225 28.61 38.4804 30.3716C39.2516 32.1645 39.4146 34.1283 39.3089 35.1319C39.2958 35.2568 39.2974 35.3799 39.3123 35.4994C39.3041 35.5649 39.2999 35.6317 39.2999 35.6994C39.2999 42.0173 38.8056 46.2539 37.7122 50.0572C36.6144 53.8757 34.8898 57.3432 32.2931 62.1372C31.8722 62.9142 32.1609 63.8852 32.9379 64.3061C33.7149 64.7269 34.6859 64.4383 35.1068 63.6613C37.71 58.8554 39.5854 55.1228 40.7876 50.9414C41.9941 46.7447 42.4999 42.1814 42.4999 35.6994C42.4999 35.6317 42.4957 35.565 42.4875 35.4995L42.4896 35.4821L42.4913 35.4669C42.6523 33.9371 42.4152 31.4209 41.4199 29.1071C40.411 26.762 38.5051 24.3887 35.2139 23.7305C30.7124 22.8304 27.5786 24.1692 25.7042 26.4959C23.9528 28.6701 23.4765 31.4941 23.7064 33.4467C24.0938 39.3028 23.6881 43.4573 22.521 47.085C21.4477 50.4211 19.6989 53.4135 17.1435 56.9519C15.8569 56.1438 14.6364 55.2357 13.4933 54.2362C15.9643 51.5294 17.6081 48.7458 18.5588 45.8064C19.6312 42.4905 19.7892 39.077 19.3688 35.5032C19.353 35.3695 19.322 35.2413 19.2776 35.1202C18.8088 32.2442 19.2603 29.2759 20.5939 26.6499C22.2056 23.4762 24.9812 21.0478 28.3409 19.872C31.7006 18.6962 35.3847 18.8639 38.6237 20.34C41.3447 21.5799 43.5749 23.6627 44.9993 26.2577C45.4508 27.0801 46.4298 27.512 47.3014 27.165ZM57.1892 12.1421C56.6402 11.4763 55.6486 11.4321 55.0104 12.013C54.3721 12.5939 54.3292 13.5796 54.8747 14.2484C57.2425 17.1511 59.0261 20.4909 60.1207 24.0837C61.2154 27.6765 61.5972 31.4435 61.2503 35.1733C61.1704 36.0326 61.7557 36.827 62.6094 36.9533C63.4631 37.0795 64.2616 36.49 64.3461 35.6311C64.758 31.4426 64.34 27.2086 63.1103 23.1728C61.8807 19.1371 59.8667 15.3893 57.1892 12.1421ZM63.0851 41.9082C63.3389 41.0834 62.83 40.2311 61.9937 40.0179C61.1575 39.8047 60.3108 40.3115 60.0527 41.1351C59.5193 42.8371 58.8314 44.4794 58.0011 46.0428C58.3887 42.9428 58.1619 40.2566 57.9997 38.7303C57.9062 37.8516 57.1182 37.215 56.2395 37.3084C55.3608 37.4018 54.7242 38.1899 54.8176 39.0686C55.1275 41.983 55.537 48.3532 51.9758 53.6008C51.8143 53.8389 51.7255 54.105 51.7045 54.3728C51.5471 54.8778 51.6336 55.4441 51.9932 55.8753C52.5459 56.5381 53.5342 56.6301 54.1693 56.0457C58.341 52.2065 61.4183 47.3271 63.0851 41.9082ZM48.367 32.5015C49.2496 32.4578 50.0005 33.1377 50.0443 34.0203C50.3325 39.8291 50.0673 51.647 45.1217 61.2329C44.7166 62.0182 43.7515 62.3263 42.9662 61.9212C42.181 61.516 41.8728 60.551 42.2779 59.7657C46.8252 50.9518 47.129 39.8366 46.8483 34.1788C46.8045 33.2963 47.4845 32.5453 48.367 32.5015ZM32.6185 30.0552C33.5279 29.8714 34.4142 30.4596 34.598 31.369C35.4551 35.6085 35.4508 40.6614 34.1894 45.7071C33.9644 46.6072 33.0522 47.1545 32.1521 46.9294C31.252 46.7044 30.7047 45.7923 30.9297 44.8921C32.0683 40.3379 32.064 35.7909 31.3047 32.0348C31.1208 31.1253 31.709 30.2391 32.6185 30.0552ZM32.1748 53.7609C32.4297 52.8688 31.9132 51.939 31.021 51.6841C30.1289 51.4292 29.1991 51.9458 28.9442 52.8379C28.2258 55.352 26.7671 57.9424 24.484 60.606C23.8802 61.3105 23.9618 62.371 24.6662 62.9749C25.3707 63.5787 26.4313 63.4971 27.0351 62.7926C29.5519 59.8563 31.2932 56.8468 32.1748 53.7609Z" fill="url(#paint0_linear_274_111039)"/>
<defs>
<linearGradient id="paint0_linear_274_111039" x1="32.5001" y1="-12.6998" x2="17.7003" y2="68.8992" gradientUnits="userSpaceOnUse">
<stop stop-color="#15CDE4"/>
<stop offset="1" stop-color="#308EE9"/>
</linearGradient>
</defs>
</svg>
